<svg width="1142" height="768" viewBox="0 0 1142 768" fill="none" xmlns="http://www.w3.org/2000/svg">
<g id="stars" filter="url(#filter0_f_3_137)">
<circle id="Ellipse 11" opacity="0.3" cx="1031" cy="7" r="3" fill="white"/>
<circle id="Ellipse 16" opacity="0.3" cx="774" cy="420" r="3" fill="white"/>
<circle id="Ellipse 21" opacity="0.3" cx="1070" cy="511" r="3" fill="white"/>
<circle id="Ellipse 22" opacity="0.3" cx="979" cy="457" r="3" fill="white"/>
<circle id="Ellipse 59" opacity="0.3" cx="1135" cy="742" r="3" fill="white"/>
<circle id="Ellipse 60" opacity="0.3" cx="953" cy="605" r="3" fill="white"/>
<circle id="Ellipse 61" opacity="0.3" cx="383" cy="720" r="3" fill="white"/>
<circle id="Ellipse 12" opacity="0.3" cx="1076" cy="294" r="3" fill="white"/>
<circle id="Ellipse 17" opacity="0.3" cx="885" cy="673" r="3" fill="white"/>
<circle id="Ellipse 13" opacity="0.3" cx="909" cy="294" r="3" fill="white"/>
<circle id="Ellipse 18" opacity="0.3" cx="718" cy="673" r="3" fill="white"/>
<circle id="Ellipse 14" opacity="0.3" cx="929" cy="36" r="3" fill="white"/>
<circle id="Ellipse 19" opacity="0.3" cx="662" cy="552" r="3" fill="white"/>
<circle id="Ellipse 15" opacity="0.3" cx="955" cy="146" r="3" fill="white"/>
<circle id="Ellipse 20" opacity="0.3" cx="815" cy="580" r="3" fill="white"/>
<circle id="Ellipse 23" opacity="0.3" cx="1.5" cy="1.5" r="1.5" transform="matrix(-1.19249e-08 1 1 1.19249e-08 486 342)" fill="white"/>
<circle id="Ellipse 35" opacity="0.3" cx="1.5" cy="1.5" r="1.5" transform="matrix(-1.19249e-08 1 1 1.19249e-08 201 161)" fill="white"/>
<circle id="Ellipse 47" opacity="0.3" cx="2.90227" cy="2.90227" r="2.90227" transform="matrix(0.376454 0.926435 0.926435 -0.376454 3.39954 697.215)" fill="white"/>
<circle id="Ellipse 24" opacity="0.3" cx="1.5" cy="1.5" r="1.5" transform="matrix(-1.19249e-08 1 1 1.19249e-08 722 177)" fill="white"/>
<circle id="Ellipse 36" opacity="0.3" cx="1.5" cy="1.5" r="1.5" transform="matrix(-1.19249e-08 1 1 1.19249e-08 158 584)" fill="white"/>
<circle id="Ellipse 48" opacity="0.3" cx="2.90227" cy="2.90227" r="2.90227" transform="matrix(0.376454 0.926435 0.926435 -0.376454 271.196 389.99)" fill="white"/>
<ellipse id="Ellipse 25" opacity="0.3" cx="1.5" cy="1" rx="1.5" ry="1" transform="matrix(-1.19249e-08 1 1 1.19249e-08 799 307)" fill="white"/>
<ellipse id="Ellipse 37" opacity="0.3" cx="1.5" cy="1" rx="1.5" ry="1" transform="matrix(-1.19249e-08 1 1 1.19249e-08 235 714)" fill="white"/>
<ellipse id="Ellipse 49" opacity="0.3" cx="2.90227" cy="1.93485" rx="2.90227" ry="1.93485" transform="matrix(0.376454 0.926435 0.926435 -0.376454 503.908 566.932)" fill="white"/>
<circle id="Ellipse 26" opacity="0.3" cx="1.5" cy="1.5" r="1.5" transform="matrix(-1.19249e-08 1 1 1.19249e-08 827 212)" fill="white"/>
<circle id="Ellipse 38" opacity="0.3" cx="1.5" cy="1.5" r="1.5" transform="matrix(-1.19249e-08 1 1 1.19249e-08 171 297)" fill="white"/>
<circle id="Ellipse 50" opacity="0.3" cx="2.90227" cy="2.90227" r="2.90227" transform="matrix(0.376454 0.926435 0.926435 -0.376454 405 409.185)" fill="white"/>
<circle id="Ellipse 27" opacity="0.3" cx="1.5" cy="1.5" r="1.5" transform="matrix(-1.19249e-08 1 1 1.19249e-08 677 294)" fill="white"/>
<circle id="Ellipse 39" opacity="0.3" cx="1.5" cy="1.5" r="1.5" transform="matrix(-1.19249e-08 1 1 1.19249e-08 113 701)" fill="white"/>
<circle id="Ellipse 51" opacity="0.3" cx="2.90227" cy="2.90227" r="2.90227" transform="matrix(0.376454 0.926435 0.926435 -0.376454 275.753 632.491)" fill="white"/>
<circle id="Ellipse 28" opacity="0.3" cx="1.5" cy="1.5" r="1.5" transform="matrix(-1.19249e-08 1 1 1.19249e-08 1000 354)" fill="white"/>
<circle id="Ellipse 40" opacity="0.3" cx="1.5" cy="1.5" r="1.5" transform="matrix(-1.19249e-08 1 1 1.19249e-08 436 761)" fill="white"/>
<circle id="Ellipse 52" opacity="0.3" cx="2.90227" cy="2.90227" r="2.90227" transform="matrix(0.376454 0.926435 0.926435 -0.376454 898.437 504.775)" fill="white"/>
<circle id="Ellipse 29" opacity="0.3" cx="1.5" cy="1.5" r="1.5" transform="matrix(-1.19249e-08 1 1 1.19249e-08 677 211)" fill="white"/>
<circle id="Ellipse 41" opacity="0.3" cx="1.5" cy="1.5" r="1.5" transform="matrix(-1.19249e-08 1 1 1.19249e-08 87 415)" fill="white"/>
<circle id="Ellipse 53" opacity="0.3" cx="2.90227" cy="2.90227" r="2.90227" transform="matrix(0.376454 0.926435 0.926435 -0.376454 215.297 483.713)" fill="white"/>
<circle id="Ellipse 30" opacity="0.3" cx="1.5" cy="1.5" r="1.5" transform="matrix(-1.19249e-08 1 1 1.19249e-08 865 116)" fill="white"/>
<circle id="Ellipse 42" opacity="0.3" cx="1.5" cy="1.5" r="1.5" transform="matrix(-1.19249e-08 1 1 1.19249e-08 327 531)" fill="white"/>
<circle id="Ellipse 54" opacity="0.3" cx="2.90227" cy="2.90227" r="2.90227" transform="matrix(0.376454 0.926435 0.926435 -0.376454 483.094 176.489)" fill="white"/>
<circle id="Ellipse 31" opacity="0.3" cx="1.5" cy="1.5" r="1.5" transform="matrix(-1.19249e-08 1 1 1.19249e-08 587 208)" fill="white"/>
<circle id="Ellipse 43" opacity="0.3" cx="1.5" cy="1.5" r="1.5" transform="matrix(-1.19249e-08 1 1 1.19249e-08 23 615)" fill="white"/>
<circle id="Ellipse 55" opacity="0.3" cx="2.90227" cy="2.90227" r="2.90227" transform="matrix(0.376454 0.926435 0.926435 -0.376454 25 192.185)" fill="white"/>
<circle id="Ellipse 32" opacity="0.3" cx="1.5" cy="1.5" r="1.5" transform="matrix(-1.19249e-08 1 1 1.19249e-08 775 113)" fill="white"/>
<circle id="Ellipse 44" opacity="0.3" cx="1.5" cy="1.5" r="1.5" transform="matrix(-1.19249e-08 1 1 1.19249e-08 201 339)" fill="white"/>
<circle id="Ellipse 56" opacity="0.3" cx="2.90227" cy="2.90227" r="2.90227" transform="matrix(0.376454 0.926435 0.926435 -0.376454 319.582 236.666)" fill="white"/>
<circle id="Ellipse 33" opacity="0.3" cx="1.5" cy="1.5" r="1.5" transform="matrix(-1.19249e-08 1 1 1.19249e-08 630 259)" fill="white"/>
<circle id="Ellipse 45" opacity="0.3" cx="1.5" cy="1.5" r="1.5" transform="matrix(-1.19249e-08 1 1 1.19249e-08 11 380)" fill="white"/>
<circle id="Ellipse 57" opacity="0.3" cx="2.90227" cy="2.90227" r="2.90227" transform="matrix(0.376454 0.926435 0.926435 -0.376454 166.012 603.987)" fill="white"/>
<circle id="Ellipse 34" opacity="0.3" cx="1.5" cy="1.5" r="1.5" transform="matrix(-1.19249e-08 1 1 1.19249e-08 1045 110)" fill="white"/>
<circle id="Ellipse 46" opacity="0.3" cx="1.5" cy="1.5" r="1.5" transform="matrix(-1.19249e-08 1 1 1.19249e-08 559 418)" fill="white"/>
<circle id="Ellipse 58" opacity="0.3" cx="2.90227" cy="2.90227" r="2.90227" transform="matrix(0.376454 0.926435 0.926435 -0.376454 801.375 34.6252)" fill="white"/>
</g>
<defs>
<filter id="filter0_f_3_137" x="0.277832" y="0" width="1141.72" height="768" filterUnits="userSpaceOnUse" color-interpolation-filters="sRGB">
<feFlood flood-opacity="0" result="BackgroundImageFix"/>
<feBlend mode="normal" in="SourceGraphic" in2="BackgroundImageFix" result="shape"/>
<feGaussianBlur stdDeviation="2" result="effect1_foregroundBlur_3_137"/>
</filter>
</defs>
</svg>
